<svg xmlns="http://www.w3.org/2000/svg"  viewBox="0 0 100 100" width="400px" height="400px"><path fill="#f5905f" d="M30.667,60h-4.594c-1.812,0-3.398,1.218-3.865,2.969l-6.537,24.515 C15.332,88.754,16.289,90,17.603,90h64.794c1.314,0,2.271-1.246,1.932-2.515l-6.537-24.515C77.325,61.218,75.739,60,73.927,60 h-4.49"/><path fill="#1f212b" d="M82.397,91H17.603c-0.939,0-1.807-0.427-2.38-1.172c-0.572-0.745-0.761-1.693-0.519-2.601 l6.538-24.515C21.825,60.527,23.811,59,26.073,59h4.594v2h-4.594c-1.356,0-2.549,0.916-2.898,2.227l-6.538,24.515 c-0.08,0.303-0.018,0.619,0.174,0.867C17.001,88.858,17.29,89,17.603,89h64.794c0.313,0,0.602-0.143,0.792-0.391 c0.191-0.249,0.254-0.564,0.174-0.867l-6.537-24.515C76.476,61.916,75.284,61,73.926,61h-4.489v-2h4.489 c2.262,0,4.249,1.526,4.831,3.711l6.537,24.515c0.242,0.908,0.054,1.856-0.52,2.601C84.203,90.573,83.337,91,82.397,91z"/><path fill="#f5905f" d="M72.419,70.105l-17.751-56.96c-0.415-1.332-1.495-2.583-2.849-2.921l-0.001,0 c-1.194-0.299-2.444-0.299-3.638,0l-0.001,0c-1.354,0.338-2.434,1.589-2.849,2.921l-17.751,56.96c-0.4,1.305-0.12,2.727,0.772,3.76 C30.851,76.758,37.149,82,50,82s19.149-5.242,21.648-8.135C72.54,72.832,72.819,71.41,72.419,70.105z"/><path fill="#1f212b" d="M50,83c-13.123,0-19.67-5.314-22.404-8.482c-1.115-1.292-1.479-3.051-0.971-4.707l17.752-56.963 c0.556-1.782,1.953-3.192,3.562-3.594c1.35-0.336,2.775-0.337,4.123,0c1.609,0.403,3.008,1.813,3.563,3.595l17.752,56.964 c0.507,1.656,0.144,3.416-0.972,4.706C69.67,77.686,63.123,83,50,83z M50,11.001c-0.53,0-1.061,0.064-1.576,0.193 c-0.917,0.229-1.796,1.154-2.137,2.249L28.536,70.403c-0.304,0.989-0.09,2.041,0.573,2.809C31.621,76.12,37.674,81,50,81 s18.379-4.88,20.891-7.789c0.663-0.767,0.877-1.818,0.573-2.812l-17.75-56.957c-0.341-1.095-1.219-2.02-2.136-2.249 C51.061,11.066,50.53,11.001,50,11.001z"/><path fill="#fff" d="M61.85,36.19C58.72,37.26,54.82,38,50,38s-8.72-0.74-11.85-1.81l4.32-13.86 C44.69,22.75,47.19,23,50,23s5.31-0.25,7.53-0.67L61.85,36.19z"/><path fill="#1f212b" d="M56.837,23.468l3.764,12.075C57.421,36.51,53.861,37,50,37s-7.421-0.49-10.601-1.457l3.764-12.075 C45.322,23.821,47.617,24,50,24S54.678,23.821,56.837,23.468 M57.53,22.33C55.31,22.75,52.81,23,50,23s-5.31-0.25-7.53-0.67 l-4.32,13.86C41.28,37.26,45.18,38,50,38s8.72-0.74,11.85-1.81L57.53,22.33L57.53,22.33z"/><path fill="#fff" d="M70.29,63.27C67.16,66.19,60.96,70,50,70s-17.16-3.81-20.29-6.73l3.8-12.2C37.1,53.17,42.4,55,50,55 s12.9-1.83,16.49-3.93L70.29,63.27z"/><path fill="#1f212b" d="M65.9,52.538l3.245,10.418C65.879,65.808,59.99,69,50,69s-15.879-3.192-19.145-6.044L34.1,52.538 C38.512,54.836,43.854,56,50,56S61.488,54.836,65.9,52.538 M66.49,51.07C62.9,53.17,57.6,55,50,55s-12.9-1.83-16.49-3.93l-3.8,12.2 C32.84,66.19,39.04,70,50,70s17.16-3.81,20.29-6.73L66.49,51.07L66.49,51.07z"/><path fill="#1f212b" d="M62.633,50.966c-0.213,0-0.41-0.137-0.478-0.351l-4.973-15.958c-0.082-0.264,0.065-0.544,0.329-0.626	c0.265-0.079,0.544,0.066,0.626,0.329l4.973,15.958c0.082,0.264-0.065,0.544-0.329,0.626C62.733,50.959,62.682,50.966,62.633,50.966	z"/><path fill="#1f212b" d="M56.719,31.99c-0.213,0-0.411-0.137-0.478-0.352l-0.925-2.97c-0.082-0.263,0.065-0.544,0.329-0.626	c0.265-0.079,0.545,0.066,0.626,0.329l0.925,2.97c0.082,0.263-0.065,0.544-0.329,0.626C56.819,31.983,56.768,31.99,56.719,31.99z"/><path fill="#1f212b" d="M54.858,26.015c-0.213,0-0.41-0.137-0.478-0.351l-3.47-11.135c-0.082-0.264,0.065-0.544,0.329-0.626	c0.264-0.08,0.544,0.066,0.626,0.329l3.47,11.135c0.082,0.264-0.065,0.544-0.329,0.626C54.958,26.008,54.907,26.015,54.858,26.015z"/><g><path fill="#1f212b" d="M79.143,87H59.562c-0.276,0-0.5-0.224-0.5-0.5s0.224-0.5,0.5-0.5h19.581 c0.156,0,0.301-0.071,0.396-0.195c0.096-0.124,0.128-0.282,0.087-0.434l-2.406-8.71c-0.073-0.266,0.083-0.542,0.35-0.615 c0.264-0.073,0.542,0.083,0.615,0.349l2.407,8.715c0.122,0.458,0.026,0.933-0.26,1.305S79.612,87,79.143,87z"/><path fill="#1f212b" d="M76.995,74.064c-0.222,0-0.424-0.147-0.483-0.371l-0.816-3.063 c-0.071-0.267,0.088-0.541,0.354-0.612c0.271-0.072,0.541,0.088,0.612,0.354l0.816,3.063c0.071,0.267-0.088,0.541-0.354,0.612 C77.081,74.058,77.037,74.064,76.995,74.064z"/><path fill="#1f212b" d="M75.638,68.976c-0.222,0-0.424-0.147-0.483-0.371l-0.394-1.476 c-0.071-0.267,0.088-0.541,0.354-0.612c0.27-0.074,0.541,0.088,0.612,0.354l0.394,1.476c0.071,0.267-0.088,0.541-0.354,0.612 C75.724,68.97,75.68,68.976,75.638,68.976z"/><path fill="#1f212b" d="M24.5,87h-3.969c-0.276,0-0.5-0.224-0.5-0.5s0.224-0.5,0.5-0.5H24.5c0.276,0,0.5,0.224,0.5,0.5 S24.776,87,24.5,87z"/><path fill="#1f212b" d="M39.531,87h-12c-0.276,0-0.5-0.224-0.5-0.5s0.224-0.5,0.5-0.5h12c0.276,0,0.5,0.224,0.5,0.5 S39.807,87,39.531,87z"/></g></svg>